<?xml version="1.0" standalone="no"?>
<!DOCTYPE svg PUBLIC "-//W3C//DTD SVG 20010904//EN"
 "http://www.w3.org/TR/2001/REC-SVG-20010904/DTD/svg10.dtd">
<svg version="1.0" xmlns="http://www.w3.org/2000/svg"
 width="700.000000pt" height="700.000000pt" viewBox="0 0 700.000000 700.000000"
 preserveAspectRatio="xMidYMid meet">
<metadata>
Created by potrace 1.14, written by Peter Selinger 2001-2017
</metadata>
<g transform="translate(0.000000,700.000000) scale(0.100000,-0.100000)"
fill="#000000" stroke="none">
<path d="M4222 5699 c-52 -9 -365 -147 -492 -217 -147 -81 -491 -289 -580
-350 -341 -235 -689 -531 -784 -666 -106 -152 -142 -252 -101 -282 21 -16 142
-37 220 -38 59 -1 60 -1 105 48 25 27 71 66 102 88 32 21 62 47 68 58 6 11 28
29 50 40 22 11 47 31 56 45 9 14 21 22 26 19 5 -4 23 8 38 25 16 17 36 31 44
31 8 0 24 14 36 30 12 17 27 30 34 30 7 0 82 47 166 104 85 58 157 103 159
100 3 -3 -40 -51 -95 -107 -55 -56 -231 -235 -390 -397 -311 -318 -369 -387
-439 -523 -38 -75 -43 -91 -34 -111 13 -27 87 -60 112 -50 9 3 36 -3 60 -15
28 -13 61 -21 93 -20 27 1 79 -4 116 -10 l66 -12 134 94 c73 52 149 102 168
112 19 10 68 37 107 61 40 24 77 44 83 44 6 0 33 11 61 25 87 45 338 125 389
125 22 0 95 -86 117 -137 32 -77 43 -150 44 -277 0 -93 -4 -133 -13 -142 -7
-6 -44 -24 -83 -39 -469 -183 -871 -400 -1082 -586 -274 -242 -378 -350 -478
-500 -159 -237 -225 -460 -180 -615 31 -108 120 -221 210 -267 17 -8 105 -32
195 -52 214 -49 355 -57 480 -27 98 24 169 54 213 90 11 10 17 10 22 2 5 -8
16 -3 34 14 14 13 37 30 51 36 53 23 201 141 295 236 73 73 195 214 220 252 6
9 30 44 55 79 25 34 62 86 83 115 66 92 177 288 212 372 18 45 51 116 73 159
54 104 105 254 139 410 l28 127 45 15 c91 29 329 95 474 131 118 29 156 43
181 66 44 38 59 77 53 139 -9 86 -75 149 -157 149 -37 0 -362 -79 -530 -129
-19 -6 -36 -9 -38 -7 -2 2 -8 59 -14 127 -12 151 -43 348 -64 408 -8 24 -29
69 -47 100 -35 62 -144 181 -165 181 -8 0 -32 9 -54 20 -31 16 -67 22 -171 27
-127 6 -130 7 -110 24 12 9 22 20 22 24 0 3 11 18 25 33 13 15 55 63 92 106
38 44 94 106 126 138 31 32 57 63 57 68 0 9 65 89 120 146 17 17 30 36 30 41
0 5 15 32 33 59 l32 49 3 150 c4 160 -17 349 -44 393 -16 24 -27 25 -112 11z
m-470 -2903 c-99 -198 -211 -379 -366 -586 -73 -99 -331 -363 -396 -406 -81
-54 -280 -80 -380 -51 -55 16 -130 68 -130 90 1 58 115 240 269 432 177 221
277 313 457 427 173 109 635 328 643 306 2 -6 -42 -101 -97 -212z"/>
</g>
</svg>
