<svg width="150" height="151" viewBox="0 0 150 151" fill="none" xmlns="http://www.w3.org/2000/svg">
<path d="M64.385 0.988597C64.3022 1.07136 63.6953 1.18172 63.0055 1.26448C61.3226 1.4576 58.7845 2.61633 57.2671 3.85782C55.8877 4.98896 54.0392 7.66506 53.7633 8.93414C53.653 9.40314 53.4874 9.73421 53.4047 9.67903C53.2943 9.62385 52.246 9.12726 51.0596 8.5479C47.6111 6.8374 43.9693 6.8374 40.5484 8.5479C38.7827 9.45832 36.5204 11.5826 35.61 13.2656C34.7823 14.7829 34.0374 17.4039 34.0374 18.7833C34.0374 19.5006 33.9271 19.6937 33.6512 19.5834C32.5752 19.1695 29.706 18.8109 28.6852 18.9764C26.8092 19.2799 24.6573 19.942 24.6573 20.2455C24.6573 20.411 24.5469 20.4662 24.409 20.3834C24.1055 20.1903 21.9536 21.7905 20.7949 23.0595C19.6361 24.301 18.4222 26.9495 18.036 28.9635C17.7601 30.5637 17.9808 33.3501 18.4774 34.6744C18.6154 35.0054 18.4498 35.1158 17.8153 35.1158C13.539 35.1158 9.18002 38.0402 7.19364 42.2061C6.36598 43.9442 6.3108 44.3028 6.3108 47.0065C6.3108 49.8481 6.33839 49.9585 7.41435 52.1104C8.0213 53.2967 8.54548 54.3727 8.60066 54.4555C8.65584 54.5658 8.32478 54.7313 7.91094 54.8141C5.56591 55.3935 2.4208 58.2351 1.17931 60.9112C-1.05538 65.6565 -0.0621831 70.9259 3.71747 74.5676L5.29002 76.085L4.24165 76.9126C-1.16573 81.2717 -1.38644 89.8793 3.82782 94.6797C4.54513 95.3143 5.89697 96.2247 6.89016 96.6937C7.85577 97.1351 8.65584 97.5766 8.65584 97.6041C8.65584 97.6593 8.35236 98.1835 7.96612 98.7353C6.33839 101.136 5.73144 105.274 6.61428 108.253C8.0213 113.054 12.739 116.778 17.4015 116.778C18.5602 116.778 18.6429 116.833 18.4774 117.385C16.491 124.255 20.1603 130.849 27.0023 132.669C29.0715 133.249 31.0578 133.138 33.4305 132.393C33.9822 132.2 34.0374 132.283 34.0374 133.249C34.065 137.359 36.8791 141.636 40.8518 143.594C42.314 144.312 43.0589 144.477 44.9901 144.588C47.9145 144.753 49.7906 144.339 51.8321 143.125C53.6254 142.022 53.6254 142.022 53.6254 142.519C53.6254 143.457 55.4187 146.326 56.7981 147.65C61.5433 152.147 68.6336 152.009 73.2961 147.347L74.9238 145.746L76.4136 147.264C81.1037 152.009 88.2216 152.147 93.0496 147.54C94.429 146.215 95.6429 144.339 96.2223 142.629C96.3602 142.187 96.4706 142.215 97.4362 142.85C99.4778 144.201 101.492 144.698 104.389 144.588C106.623 144.505 107.285 144.367 108.886 143.622C112.665 141.829 115.286 138.16 115.617 134.159C115.755 132.504 115.838 132.228 116.224 132.393C116.472 132.476 117.438 132.697 118.404 132.862C121.907 133.497 125.687 132.2 128.418 129.497C131.122 126.765 132.419 122.986 131.784 119.454C131.619 118.516 131.398 117.551 131.315 117.302C131.15 116.916 131.425 116.833 133.081 116.696C137.081 116.364 140.75 113.744 142.544 109.964C143.289 108.364 143.427 107.702 143.509 105.467C143.62 102.57 143.123 100.556 141.771 98.5146C141.137 97.549 141.109 97.4386 141.551 97.3007C143.344 96.6937 145.054 95.6178 146.434 94.1556C148.199 92.3071 149.248 90.2931 149.689 87.8102C150.351 84.3064 148.917 80.1405 146.158 77.4368L144.668 75.9746L146.268 74.3745C150.931 69.712 151.069 62.8148 146.654 57.9868C145.303 56.5246 142.489 54.7038 141.523 54.7038C140.944 54.7038 140.944 54.7313 142.047 52.9105C143.261 50.8689 143.675 48.9929 143.509 46.0685C143.399 44.1097 143.233 43.42 142.461 41.8198C140.557 37.985 136.226 35.1434 132.226 35.1158H131.232L131.591 33.5156C132.06 31.5293 132.06 29.8188 131.591 28.0807C130.35 23.363 127.011 20.2179 122.238 19.2247C120.362 18.8109 118.431 18.9212 116.334 19.5558C115.755 19.7213 115.7 19.6385 115.7 18.4798C115.7 17.0452 114.762 13.8173 114.183 13.2104C113.962 12.9897 113.769 12.6862 113.769 12.5483C113.769 12.4103 113.245 11.7482 112.61 11.0585C108.692 6.94775 102.926 6.0925 97.85 8.90655L96.443 9.70662L95.5878 7.94094C94.4566 5.48555 92.6082 3.58193 90.1804 2.39562C85.4351 0.050582 80.3864 0.878242 76.6343 4.60271L74.8687 6.36839L73.9858 5.29243C72.8271 3.83023 70.2062 2.09214 68.4129 1.59555C66.7576 1.15413 64.5781 0.795476 64.385 0.988597Z" fill="white"/>
</svg>
