<svg width="150" height="150" viewBox="0 0 150 150" fill="none" xmlns="http://www.w3.org/2000/svg">
<path d="M75.6562 83.8125C77.2187 83.8125 78.5313 83.2734 79.5938 82.1953C80.6562 81.1172 81.1875 79.7812 81.1875 78.1875V41.8125C81.1875 40.3125 80.625 39.0312 79.5 37.9688C78.375 36.9063 77.0312 36.375 75.4688 36.375C73.9063 36.375 72.5937 36.9141 71.5312 37.9922C70.4688 39.0703 69.9375 40.4062 69.9375 42V78.375C69.9375 79.875 70.5 81.1563 71.625 82.2188C72.75 83.2812 74.0938 83.8125 75.6562 83.8125ZM74.9966 112.5C76.7489 112.5 78.2187 111.907 79.4062 110.722C80.5938 109.537 81.1875 108.068 81.1875 106.316C81.1875 104.564 80.5949 103.094 79.4096 101.906C78.2243 100.719 76.7555 100.125 75.0034 100.125C73.2511 100.125 71.7813 100.718 70.5938 101.903C69.4062 103.088 68.8125 104.557 68.8125 106.309C68.8125 108.061 69.4051 109.531 70.5904 110.719C71.7757 111.906 73.2445 112.5 74.9966 112.5ZM74.9062 150C64.3438 150 54.5 148.094 45.375 144.281C36.25 140.469 28.3125 135.188 21.5625 128.438C14.8125 121.688 9.53125 113.75 5.71875 104.625C1.90625 95.5 0 85.6562 0 75.0938C0 64.5313 1.90625 54.6875 5.71875 45.5625C9.53125 36.4375 14.8125 28.5 21.5625 21.75C28.3125 15 36.25 9.6875 45.375 5.8125C54.5 1.9375 64.3438 0 74.9062 0C85.4687 0 95.3125 1.9375 104.438 5.8125C113.563 9.6875 121.5 15 128.25 21.75C135 28.5 140.313 36.4375 144.188 45.5625C148.062 54.6875 150 64.5313 150 75.0938C150 85.6562 148.062 95.5 144.188 104.625C140.313 113.75 135 121.688 128.25 128.438C121.5 135.188 113.563 140.469 104.438 144.281C95.3125 148.094 85.4687 150 74.9062 150ZM75 138.75C92.5 138.75 107.5 132.5 120 120C132.5 107.5 138.75 92.5 138.75 75C138.75 57.5 132.5 42.5 120 30C107.5 17.5 92.5 11.25 75 11.25C57.5 11.25 42.5 17.5 30 30C17.5 42.5 11.25 57.5 11.25 75C11.25 92.5 17.5 107.5 30 120C42.5 132.5 57.5 138.75 75 138.75Z" fill="#690005"/>
</svg>
